<svg width="40" height="39" viewBox="0 0 40 39" fill="none" xmlns="http://www.w3.org/2000/svg">
  <path d="M17.8 0.200015C8.60002 1.20001 1.20002 8.60001 0.200018 17.6C-0.799982 27 4.60002 35.4 12.8 38.6C13.4 38.8 14 38.4 14 37.6V34.4C14 34.4 13.2 34.6 12.2 34.6C9.40002 34.6 8.20002 32.2 8.00002 30.8C7.80002 30 7.40002 29.4 6.80002 28.8C6.20002 28.6 6.00002 28.6 6.00002 28.4C6.00002 28 6.60002 28 6.80002 28C8.00002 28 9.00002 29.4 9.40002 30C10.4 31.6 11.6 32 12.2 32C13 32 13.6 31.8 14 31.6C14.2 30.2 14.8 28.8 16 28C11.4 27 8.00002 24.4 8.00002 20C8.00002 17.8 9.00002 15.6 10.4 14C10.2 13.6 10 12.6 10 11.2C10 10.4 10 9.20001 10.6 8.00001C10.6 8.00001 13.4 8.00001 16.2 10.6C17.2 10.2 18.6 10 20 10C21.4 10 22.8 10.2 24 10.6C26.6 8.00001 29.6 8.00001 29.6 8.00001C30 9.20001 30 10.4 30 11.2C30 12.8 29.8 13.6 29.6 14C31 15.6 32 17.6 32 20C32 24.4 28.6 27 24 28C25.2 29 26 30.8 26 32.6V37.8C26 38.4 26.6 39 27.4 38.8C34.8 35.8 40 28.6 40 20.2C40 8.20002 29.8 -1.19998 17.8 0.200015Z" fill="#B3B3B3"/>
</svg>
