<svg width="36" height="36" viewBox="0 0 36 36" fill="none" xmlns="http://www.w3.org/2000/svg">
  <path d="M32.4 0.400024H3.60002C1.83202 0.400024 0.400024 1.83202 0.400024 3.60002V32.4C0.400024 34.168 1.83202 35.6 3.60002 35.6H32.4C34.168 35.6 35.6 34.168 35.6 32.4V3.60002C35.6 1.83202 34.168 0.400024 32.4 0.400024ZM11.5264 29.2H6.80642V14.0128H11.5264V29.2ZM9.11842 11.8416C7.59682 11.8416 6.36642 10.608 6.36642 9.08962C6.36642 7.57122 7.59842 6.33922 9.11842 6.33922C10.6352 6.33922 11.8688 7.57282 11.8688 9.08962C11.8688 10.608 10.6352 11.8416 9.11842 11.8416ZM29.2064 29.2H24.4896V21.8144C24.4896 20.0528 24.4576 17.7872 22.0368 17.7872C19.5808 17.7872 19.2032 19.7056 19.2032 21.6864V29.2H14.4864V14.0128H19.0144V16.088H19.0784C19.7088 14.8944 21.248 13.6352 23.544 13.6352C28.3232 13.6352 29.2064 16.7808 29.2064 20.8704V29.2V29.2Z" fill="#B3B3B3"/>
  </svg>
